<?xml version="1.0" encoding="UTF-8"?>
<svg width="711px" height="163px" viewBox="0 0 711 163" version="1.1" xmlns="http://www.w3.org/2000/svg" xmlns:xlink="http://www.w3.org/1999/xlink">
    <title>peoplePlus</title>
    <g id="Page-1" stroke="none" stroke-width="1" fill="none" fill-rule="evenodd">
        <g id="peoplePlus" transform="translate(0.400000, 0.900000)" fill-rule="nonzero">
            <path d="M63,12 C91.1,12 114,34.9 114,63 C114,91.1 91.1,114 63,114 C34.9,114 12,91.1 12,63 C12,34.9 34.9,12 63,12 M63,0 C28.2,0 2.84217094e-14,28.2 2.84217094e-14,63 C2.84217094e-14,97.8 28.2,126 63,126 C97.8,126 126,97.8 126,63 C126,28.2 97.8,0 63,0 L63,0 Z" id="Shape" fill="#AE0F0A"></path>
            <polygon id="Path" fill="#929292" points="41.2 97.7 41.2 78.5 21.9 78.5 21.9 66.5 41.2 66.5 41.2 47.3 53.6 47.3 53.6 66.5 73.3 66.5 73.3 78.5 53.6 78.5 53.6 97.7"></polygon>
            <path d="M78.7,66.1 L79,66 C85.5,64.6 89.3,60.2 89.3,54.3 L89.3,54.1 C89.3,46.4 83.9,41.9 74.5,41.9 L41.1,41.9 L41.1,29.8 L75.6,29.8 C92.1,29.8 102.8,39.2 102.8,53.8 L102.8,54 C102.8,67.3 93.7,76.6 79.2,78.2 L78.7,78.3 L78.7,66.1 Z" id="Path" fill="#AE0F0A"></path>
            <g id="Group" transform="translate(377.900000, 120.800000)" fill="#929292">
                <path d="M0,30.3 L1.3,28.5 C3.8,30.5 6.7,31.5 9.6,31.5 C12.7,31.5 15.2,29.8 15.2,27.1 L15.2,27 C15.2,24.3 12.3,23.3 9.1,22.4 C5.3,21.3 1.2,20.2 1.2,16 L1.2,15.9 C1.2,12.2 4.3,9.5 8.8,9.5 C11.6,9.5 14.7,10.5 17,12 L15.8,13.9 C13.7,12.5 11.1,11.6 8.7,11.6 C5.5,11.6 3.4,13.3 3.4,15.6 L3.4,15.7 C3.4,18.3 6.5,19.2 9.8,20.2 C13.5,21.2 17.4,22.6 17.4,26.7 L17.4,26.8 C17.4,30.9 13.9,33.6 9.4,33.6 C6.2,33.6 2.5,32.3 0,30.3 Z" id="Path"></path>
                <polygon id="Path" points="22.9 0 25.1 0 25.1 24.8 39.4 10 42.3 10 32.3 20.3 42.7 33.2 39.9 33.2 30.7 21.9 25.1 27.6 25.1 33.2 22.9 33.2"></polygon>
                <path d="M46.8,1 L49.6,1 L49.6,4 L46.8,4 L46.8,1 Z M47.1,10 L49.3,10 L49.3,33.1 L47.1,33.1 L47.1,10 Z" id="Shape"></path>
                <polygon id="Path" points="56.5 0 58.7 0 58.7 33.1 56.5 33.1"></polygon>
                <polygon id="Path" points="66 0 68.2 0 68.2 33.1 66 33.1"></polygon>
                <path d="M73.2,30.3 L74.5,28.5 C77,30.5 79.9,31.5 82.8,31.5 C85.9,31.5 88.4,29.8 88.4,27.1 L88.4,27 C88.4,24.3 85.5,23.3 82.3,22.4 C78.5,21.3 74.4,20.2 74.4,16 L74.4,15.9 C74.4,12.2 77.5,9.5 82,9.5 C84.8,9.5 87.9,10.5 90.2,12 L89,13.9 C86.9,12.5 84.3,11.6 81.9,11.6 C78.7,11.6 76.6,13.3 76.6,15.6 L76.6,15.7 C76.6,18.3 79.7,19.2 83,20.2 C86.7,21.2 90.6,22.6 90.6,26.7 L90.6,26.8 C90.6,30.9 87.1,33.6 82.6,33.6 C79.3,33.6 75.7,32.3 73.2,30.3 Z" id="Path"></path>
                <path d="M111.4,12.1 L108,12.1 L108,10.1 L111.4,10.1 L111.4,7.8 C111.4,5.2 112.1,3.1 113.4,1.8 C114.6,0.6 116.2,0 118.3,0 C119.7,0 120.7,0.2 121.7,0.5 L121.7,2.6 C120.4,2.2 119.4,2 118.3,2 C115.1,2 113.6,3.9 113.6,7.9 L113.6,10.1 L121.7,10.1 L121.7,12.1 L113.6,12.1 L113.6,33.2 L111.4,33.2 L111.4,12.1 Z" id="Path"></path>
                <path d="M122.8,21.7 L122.8,21.7 C122.8,15.1 127.8,9.5 134.7,9.5 C141.6,9.5 146.5,15 146.5,21.5 L146.5,21.6 C146.5,28.1 141.5,33.7 134.6,33.7 C127.8,33.7 122.8,28.2 122.8,21.7 Z M144.2,21.7 L144.2,21.7 C144.2,16 140,11.6 134.7,11.6 C129.2,11.6 125.3,16.1 125.3,21.5 L125.3,21.6 C125.3,27.2 129.5,31.6 134.8,31.6 C140.2,31.6 144.2,27.1 144.2,21.7 Z" id="Shape"></path>
                <path d="M152.2,10 L154.4,10 L154.4,16.6 C156.2,12.5 160.1,9.5 164.7,9.7 L164.7,12.2 L164.5,12.2 C159.1,12.2 154.5,16.2 154.5,23.8 L154.5,33.3 L152.3,33.3 L152.3,10 L152.2,10 Z" id="Path"></path>
                <path d="M182.1,37 L183.4,35.2 C186.2,37.3 189.3,38.5 192.7,38.5 C198,38.5 201.8,35.5 201.8,29.5 L201.8,26.1 C199.8,29 196.7,31.5 192.1,31.5 C186.5,31.5 181,27.2 181,20.6 L181,20.5 C181,13.8 186.5,9.5 192.1,9.5 C196.7,9.5 199.9,12 201.8,14.7 L201.8,10.1 L204,10.1 L204,29.7 C204,33.1 202.9,35.7 201.1,37.5 C199.1,39.5 196.1,40.6 192.7,40.6 C188.9,40.5 185.3,39.3 182.1,37 Z M202,20.5 L202,20.5 C202,15.1 197.2,11.6 192.4,11.6 C187.5,11.6 183.5,15 183.5,20.4 L183.5,20.5 C183.5,25.7 187.7,29.3 192.4,29.3 C197.2,29.3 202,25.8 202,20.5 Z" id="Shape"></path>
                <path d="M211.1,10 L213.3,10 L213.3,16.6 C215.1,12.5 219,9.5 223.6,9.7 L223.6,12.2 L223.4,12.2 C218,12.2 213.4,16.2 213.4,23.8 L213.4,33.3 L211.2,33.3 L211.2,10 L211.1,10 Z" id="Path"></path>
                <path d="M225.1,21.7 L225.1,21.7 C225.1,15.1 230.1,9.5 237,9.5 C243.9,9.5 248.8,15 248.8,21.5 L248.8,21.6 C248.8,28.1 243.8,33.7 236.9,33.7 C230.1,33.7 225.1,28.2 225.1,21.7 Z M246.5,21.7 L246.5,21.7 C246.5,16 242.3,11.6 237,11.6 C231.5,11.6 227.6,16.1 227.6,21.5 L227.6,21.6 C227.6,27.2 231.8,31.6 237.1,31.6 C242.5,31.6 246.5,27.1 246.5,21.7 Z" id="Shape"></path>
                <polygon id="Path" points="251.1 10 253.6 10 260.6 30.3 267.6 9.9 269.4 9.9 276.4 30.3 283.4 10 285.8 10 277.3 33.3 275.4 33.3 268.5 13.5 261.6 33.3 259.7 33.3"></polygon>
                <path d="M292.7,27.2 L292.7,12 L289.3,12 L289.3,10 L292.7,10 L292.7,2.6 L294.9,2.6 L294.9,10 L303,10 L303,12 L294.9,12 L294.9,26.9 C294.9,30.2 296.9,31.4 299.5,31.4 C300.6,31.4 301.6,31.2 302.9,30.6 L302.9,32.7 C301.7,33.2 300.6,33.5 299.1,33.5 C295.6,33.6 292.7,31.6 292.7,27.2 Z" id="Path"></path>
                <path d="M307.6,0 L309.8,0 L309.8,14.3 C311.3,11.6 313.9,9.4 318.1,9.4 C324,9.4 327.4,13.4 327.4,18.9 L327.4,33.1 L325.2,33.1 L325.2,19.4 C325.2,14.6 322.5,11.5 317.9,11.5 C313.4,11.5 309.9,14.9 309.9,19.8 L309.9,33.2 L307.7,33.2 L307.7,0 L307.6,0 Z" id="Path"></path>
            </g>
            <g id="Group" transform="translate(156.300000, 23.300000)" fill="#AE0F0A">
                <path d="M0.1,3.2 L31.1,3.2 C49.2,3.2 60.1,13.9 60.1,29.4 L60.1,29.6 C60.1,47.1 46.5,56.2 29.4,56.2 L16.7,56.2 L16.7,78.9 L0,78.9 L0,3.2 L0.1,3.2 Z M30,41.4 C38.3,41.4 43.2,36.4 43.2,29.9 L43.2,29.7 C43.2,22.2 38,18.2 29.7,18.2 L16.8,18.2 L16.8,41.4 L30,41.4 Z" id="Shape"></path>
                <path d="M62.7,50.3 L62.7,50.1 C62.7,33.5 74.5,19.9 91.4,19.9 C110.8,19.9 119.7,35 119.7,51.4 C119.7,52.7 119.6,54.2 119.5,55.7 L79.1,55.7 C80.7,63.2 85.9,67.1 93.3,67.1 C98.8,67.1 102.8,65.4 107.4,61.1 L116.8,69.4 C111.4,76.1 103.6,80.2 93.1,80.2 C75.6,80.3 62.7,68.1 62.7,50.3 Z M103.6,45.4 C102.6,38 98.3,33.1 91.4,33.1 C84.6,33.1 80.1,38 78.8,45.4 L103.6,45.4 Z" id="Shape"></path>
                <path d="M124.4,50.3 L124.4,50.1 C124.4,33.4 137.8,19.9 155.9,19.9 C173.9,19.9 187.2,33.2 187.2,49.9 L187.2,50.1 C187.2,66.8 173.8,80.3 155.7,80.3 C137.7,80.3 124.4,67 124.4,50.3 Z M171,50.3 L171,50.1 C171,41.5 164.8,34.1 155.7,34.1 C146.3,34.1 140.6,41.4 140.6,49.9 L140.6,50.1 C140.6,58.7 146.8,66.1 155.9,66.1 C165.3,66.1 171,58.9 171,50.3 Z" id="Shape"></path>
                <path d="M194.5,21 L211,21 L211,29.3 C215,23.9 220.5,19.9 229.1,19.9 C242.6,19.9 255.5,30.5 255.5,49.9 L255.5,50.1 C255.5,69.5 242.8,80.1 229.1,80.1 C220.3,80.1 214.9,76.1 211,71.4 L211,96.3 L194.5,96.3 L194.5,21 Z M239,50.1 L239,49.9 C239,40.3 232.5,33.9 224.8,33.9 C217.1,33.9 210.7,40.3 210.7,49.9 L210.7,50.1 C210.7,59.7 217.1,66.1 224.8,66.1 C232.5,66.1 239,59.9 239,50.1 Z" id="Shape"></path>
                <polygon id="Path" points="263.7 7.10542736e-15 280.2 7.10542736e-15 280.2 79.1 263.7 79.1"></polygon>
                <path d="M288.1,50.3 L288.1,50.1 C288.1,33.5 299.9,19.9 316.8,19.9 C336.2,19.9 345.1,35 345.1,51.4 C345.1,52.7 345,54.2 344.9,55.7 L304.5,55.7 C306.1,63.2 311.3,67.1 318.7,67.1 C324.2,67.1 328.2,65.4 332.8,61.1 L342.2,69.4 C336.8,76.1 329,80.2 318.5,80.2 C301,80.3 288.1,68.1 288.1,50.3 Z M329.1,45.4 C328.1,38 323.8,33.1 316.9,33.1 C310.1,33.1 305.6,38 304.3,45.4 L329.1,45.4 Z" id="Shape"></path>
                <path d="M354.4,3.2 L385.4,3.2 C403.5,3.2 414.4,13.9 414.4,29.4 L414.4,29.6 C414.4,47.1 400.8,56.2 383.7,56.2 L371,56.2 L371,78.9 L354.3,78.9 L354.3,3.2 L354.4,3.2 Z M384.3,41.4 C392.6,41.4 397.5,36.4 397.5,29.9 L397.5,29.7 C397.5,22.2 392.3,18.2 384,18.2 L371.1,18.2 L371.1,41.4 L384.3,41.4 Z" id="Shape"></path>
                <polygon id="Path" points="421.1 7.10542736e-15 437.6 7.10542736e-15 437.6 79.1 421.1 79.1"></polygon>
                <path d="M448,58.6 L448,21 L464.5,21 L464.5,53.4 C464.5,61.2 468.2,65.2 474.5,65.2 C480.8,65.2 484.8,61.2 484.8,53.4 L484.8,21 L501.3,21 L501.3,79.1 L484.8,79.1 L484.8,70.8 C481,75.7 476.1,80.1 467.8,80.1 C455.3,80.1 448,71.9 448,58.6 Z" id="Path"></path>
                <path d="M506.7,71.3 L513.7,60.5 C520,65 526.6,67.4 532,67.4 C536.8,67.4 538.9,65.7 538.9,63.1 L538.9,62.9 C538.9,59.3 533.3,58.1 526.9,56.2 C518.8,53.8 509.6,50 509.6,38.8 L509.6,38.6 C509.6,26.8 519.1,20.2 530.8,20.2 C538.2,20.2 546.2,22.7 552.5,26.9 L546.2,38.3 C540.5,34.9 534.7,32.9 530.5,32.9 C526.5,32.9 524.4,34.6 524.4,36.9 L524.4,37.1 C524.4,40.3 529.9,41.9 536.2,44 C544.3,46.7 553.7,50.6 553.7,61.2 L553.7,61.4 C553.7,74.3 544.1,80.1 531.5,80.1 C523.5,80.1 514.4,77.4 506.7,71.3 Z" id="Path"></path>
            </g>
        </g>
    </g>
</svg>